<svg width="20" height="14" viewBox="0 0 20 14" fill="none" xmlns="http://www.w3.org/2000/svg">
<path d="M11 11.0065H1C0.734784 11.0065 0.48043 11.1121 0.292893 11.2999C0.105357 11.4877 0 11.7425 0 12.0082C0 12.2738 0.105357 12.5286 0.292893 12.7164C0.48043 12.9043 0.734784 13.0098 1 13.0098H11C11.2652 13.0098 11.5196 12.9043 11.7071 12.7164C11.8946 12.5286 12 12.2738 12 12.0082C12 11.7425 11.8946 11.4877 11.7071 11.2999C11.5196 11.1121 11.2652 11.0065 11 11.0065ZM1 2.9934H19C19.2652 2.9934 19.5196 2.88787 19.7071 2.70002C19.8946 2.51218 20 2.25741 20 1.99175C20 1.7261 19.8946 1.47133 19.7071 1.28349C19.5196 1.09564 19.2652 0.990112 19 0.990112H1C0.734784 0.990112 0.48043 1.09564 0.292893 1.28349C0.105357 1.47133 0 1.7261 0 1.99175C0 2.25741 0.105357 2.51218 0.292893 2.70002C0.48043 2.88787 0.734784 2.9934 1 2.9934ZM19 5.99832H1C0.734784 5.99832 0.48043 6.10385 0.292893 6.2917C0.105357 6.47954 0 6.73431 0 6.99996C0 7.26562 0.105357 7.52039 0.292893 7.70823C0.48043 7.89608 0.734784 8.00161 1 8.00161H19C19.2652 8.00161 19.5196 7.89608 19.7071 7.70823C19.8946 7.52039 20 7.26562 20 6.99996C20 6.73431 19.8946 6.47954 19.7071 6.2917C19.5196 6.10385 19.2652 5.99832 19 5.99832Z" fill="black"/>
</svg>
