<svg width="19" height="22" viewBox="0 0 19 22" fill="none" xmlns="http://www.w3.org/2000/svg">
<path fill-rule="evenodd" clip-rule="evenodd" d="M7.48298 19.2365C8.00098 19.8144 8.66598 20.132 9.35598 20.132H9.35698C10.05 20.132 10.718 19.8144 11.237 19.2355C11.515 18.928 11.989 18.9029 12.296 19.1804C12.604 19.4579 12.629 19.9336 12.352 20.2411C11.544 21.1396 10.481 21.6344 9.35698 21.6344H9.35498C8.23398 21.6334 7.17298 21.1386 6.36798 20.2401C6.09098 19.9326 6.11598 19.4569 6.42398 19.1804C6.73198 18.9019 7.20598 18.927 7.48298 19.2365ZM9.40578 0.0991211C13.8508 0.0991211 16.8368 3.56681 16.8368 6.80511C16.8368 8.47084 17.2598 9.177 17.7088 9.92623C18.1528 10.6654 18.6558 11.5048 18.6558 13.0914C18.3068 17.1451 14.0818 17.4756 9.40578 17.4756C4.72978 17.4756 0.503779 17.1451 0.158766 13.1555C0.155779 11.5048 0.658779 10.6654 1.10278 9.92623L1.25952 9.66195C1.64545 8.99757 1.97478 8.27488 1.97478 6.80511C1.97478 3.56681 4.96078 0.0991211 9.40578 0.0991211ZM9.40578 1.60158C5.91078 1.60158 3.47478 4.34408 3.47478 6.80511C3.47478 8.88753 2.89778 9.85011 2.38778 10.6995C1.97878 11.3816 1.65578 11.9205 1.65578 13.0914C1.82278 14.9805 3.06778 15.9731 9.40578 15.9731C15.7088 15.9731 16.9928 14.9364 17.1588 13.0263C17.1558 11.9205 16.8328 11.3816 16.4238 10.6995C15.9138 9.85011 15.3368 8.88753 15.3368 6.80511C15.3368 4.34408 12.9008 1.60158 9.40578 1.60158Z" fill="#25324B"/>
</svg>
